<svg xmlns="http://www.w3.org/2000/svg" width="1017" height="828" viewBox="0 0 1017 828" font-family="Helvetica, Arial, sans-serif">
<style>
  .bg{fill:#ffffff}
  .wall{fill:#2b2f36;stroke:none}
  .walltemp{fill:#8f959d;stroke:#2b2f36;stroke-width:0.7;stroke-dasharray:4 3}
  .glassw{fill:#bcd9e6;stroke:#2b2f36;stroke-width:0.7}
  .part{fill:#5b616a;stroke:none}
  .partfire{fill:#b4544a;stroke:none}
  .room{stroke:none}
  .void{fill:#eceff3;stroke:#9aa1ab;stroke-width:0.8;stroke-dasharray:5 4}
  .furn{fill:#ffffff;fill-opacity:0.55;stroke:#6d747d;stroke-width:0.7}
  .furnkey{fill:#ffffff;fill-opacity:0.75;stroke:#2b2f36;stroke-width:1.1}
  .beyond{fill:#ffffff;fill-opacity:0.5;stroke:#a7adb6;stroke-width:0.7}
  .slab{fill:#7d848d;stroke:#2b2f36;stroke-width:0.6}
  .roof{fill:#4a505a;stroke:none}
  .ground{stroke:#2b2f36;stroke-width:2.2;fill:none}
  .grid{stroke:#c2c8d0;stroke-width:0.8;stroke-dasharray:9 4 2 4;fill:none}
  .dim{stroke:#2b2f36;stroke-width:0.7;fill:none}
  .lead{stroke:#8b929b;stroke-width:0.6;fill:none}
  .door{stroke:#2b2f36;stroke-width:0.9;fill:none}
  .frame{fill:none;stroke:#2b2f36;stroke-width:1.2}
  .thin{fill:none;stroke:#2b2f36;stroke-width:0.8}
  .hatch{fill:none;stroke:#2b2f36;stroke-width:0.7}
  text{fill:#20242a}
  .lbl{font-size:11px}
  .lblsm{font-size:9px;fill:#5b616a}
  .lblrm{font-size:11.5px;font-weight:700}
  .lblar{font-size:9.5px;fill:#4a505a}
  .ttl{font-size:19px;font-weight:700;letter-spacing:0.2px}
  .sub{font-size:11px;fill:#5b616a}
  .axis{font-size:10px;font-weight:700;fill:#2b2f36}
  .dimt{font-size:9.5px;fill:#2b2f36}
  .warn{font-size:9.5px;fill:#a3453c}
  .onwall{font-size:9px;fill:#e6eaef}
  .pvpanel{fill:#3d4a6b;stroke:#8ea0c4;stroke-width:0.7}
  .portal{fill:none;stroke:#ffffff;stroke-width:1.8}
  .portallime{fill:none;stroke:#bfe32e;stroke-width:1.6}
</style>
<rect class="bg" x="0" y="0" width="1017" height="828"/>
<rect x="663.0" y="183.8" width="189.0" height="394.2" class="room" fill="#dbe9f7"/>
<rect x="744.0" y="92.0" width="108.0" height="91.8" class="room" fill="#fcedd8"/>
<rect x="663.0" y="92.0" width="81.0" height="91.8" class="room" fill="#d7efee"/>
<rect x="582.0" y="92.0" width="81.0" height="162.0" class="room" fill="#d7efee"/>
<rect x="511.8" y="178.4" width="70.2" height="75.6" class="room" fill="#d7efee"/>
<rect x="474.0" y="178.4" width="37.8" height="75.6" class="room" fill="#d7efee"/>
<rect x="474.0" y="92.0" width="108.0" height="86.4" class="room" fill="#d7efee"/>
<rect x="474.0" y="254.0" width="189.0" height="324.0" class="room" fill="#fcedd8"/>
<rect x="285.0" y="92.0" width="189.0" height="486.0" class="room" fill="#fadddb"/>
<rect x="96.0" y="92.0" width="189.0" height="135.0" class="room" fill="#efe8de"/>
<rect x="96.0" y="227.0" width="189.0" height="351.0" class="room" fill="#e8e9ea"/>
<line x1="852.0" y1="60.0" x2="852.0" y2="598.0" class="grid" />
<circle cx="852.0" cy="50.0" r="10.0" fill="#fff" stroke="#2b2f36" stroke-width="1"/>
<text x="852.0" y="54.0" class="axis" text-anchor="middle">1</text>
<line x1="663.0" y1="60.0" x2="663.0" y2="598.0" class="grid" />
<circle cx="663.0" cy="50.0" r="10.0" fill="#fff" stroke="#2b2f36" stroke-width="1"/>
<text x="663.0" y="54.0" class="axis" text-anchor="middle">2</text>
<line x1="474.0" y1="60.0" x2="474.0" y2="598.0" class="grid" />
<circle cx="474.0" cy="50.0" r="10.0" fill="#fff" stroke="#2b2f36" stroke-width="1"/>
<text x="474.0" y="54.0" class="axis" text-anchor="middle">3</text>
<line x1="285.0" y1="60.0" x2="285.0" y2="598.0" class="grid" />
<circle cx="285.0" cy="50.0" r="10.0" fill="#fff" stroke="#2b2f36" stroke-width="1"/>
<text x="285.0" y="54.0" class="axis" text-anchor="middle">4</text>
<line x1="96.0" y1="60.0" x2="96.0" y2="598.0" class="grid" />
<circle cx="96.0" cy="50.0" r="10.0" fill="#fff" stroke="#2b2f36" stroke-width="1"/>
<text x="96.0" y="54.0" class="axis" text-anchor="middle">5</text>
<circle cx="898.0" cy="578.0" r="10.0" fill="#fff" stroke="#2b2f36" stroke-width="1"/>
<text x="898.0" y="582.0" class="axis" text-anchor="middle">A</text>
<circle cx="898.0" cy="92.0" r="10.0" fill="#fff" stroke="#2b2f36" stroke-width="1"/>
<text x="898.0" y="96.0" class="axis" text-anchor="middle">B</text>
<rect x="96.0" y="92.0" width="756.0" height="6.8" class="wall" />
<rect x="96.0" y="571.3" width="756.0" height="6.8" class="wall" />
<rect x="845.3" y="92.0" width="6.8" height="486.0" class="glassw" />
<rect x="96.0" y="92.0" width="6.8" height="486.0" class="walltemp" />
<line x1="845.3" y1="537.5" x2="852.0" y2="537.5" class="thin" />
<line x1="845.3" y1="497.0" x2="852.0" y2="497.0" class="thin" />
<line x1="845.3" y1="456.5" x2="852.0" y2="456.5" class="thin" />
<line x1="845.3" y1="416.0" x2="852.0" y2="416.0" class="thin" />
<line x1="845.3" y1="375.5" x2="852.0" y2="375.5" class="thin" />
<line x1="845.3" y1="335.0" x2="852.0" y2="335.0" class="thin" />
<line x1="845.3" y1="294.5" x2="852.0" y2="294.5" class="thin" />
<line x1="845.3" y1="254.0" x2="852.0" y2="254.0" class="thin" />
<line x1="845.3" y1="213.5" x2="852.0" y2="213.5" class="thin" />
<line x1="845.3" y1="173.0" x2="852.0" y2="173.0" class="thin" />
<line x1="845.3" y1="132.5" x2="852.0" y2="132.5" class="thin" />
<rect x="528.0" y="571.3" width="81.0" height="6.8" class="room" fill="#ffffff"/>
<line x1="609.0" y1="571.3" x2="609.0" y2="578.0" class="thin" />
<line x1="528.0" y1="571.3" x2="528.0" y2="578.0" class="thin" />
<rect x="433.5" y="571.3" width="32.4" height="6.8" class="room" fill="#ffffff"/>
<line x1="465.9" y1="571.3" x2="465.9" y2="578.0" class="thin" />
<line x1="433.5" y1="571.3" x2="433.5" y2="578.0" class="thin" />
<rect x="241.8" y="571.3" width="32.4" height="6.8" class="room" fill="#ffffff"/>
<line x1="274.2" y1="571.3" x2="274.2" y2="578.0" class="thin" />
<line x1="241.8" y1="571.3" x2="241.8" y2="578.0" class="thin" />
<rect x="117.6" y="571.3" width="108.0" height="6.8" class="room" fill="#ffffff"/>
<line x1="225.6" y1="571.3" x2="225.6" y2="578.0" class="thin" />
<line x1="117.6" y1="571.3" x2="117.6" y2="578.0" class="thin" />
<rect x="717.0" y="571.3" width="81.0" height="6.8" class="room" fill="#ffffff"/>
<line x1="798.0" y1="574.6" x2="717.0" y2="574.6" class="thin" />
<rect x="617.1" y="571.3" width="29.7" height="6.8" class="room" fill="#ffffff"/>
<line x1="646.8" y1="574.6" x2="617.1" y2="574.6" class="thin" />
<rect x="490.2" y="571.3" width="29.7" height="6.8" class="room" fill="#ffffff"/>
<line x1="519.9" y1="574.6" x2="490.2" y2="574.6" class="thin" />
<rect x="317.4" y="571.3" width="105.3" height="6.8" class="room" fill="#ffffff"/>
<line x1="422.7" y1="574.6" x2="317.4" y2="574.6" class="thin" />
<rect x="731.3" y="182.4" width="12.7" height="2.7" class="part" />
<rect x="663.0" y="182.4" width="39.7" height="2.7" class="part" />
<rect x="660.3" y="183.8" width="5.4" height="70.2" class="partfire" />
<rect x="660.3" y="282.6" width="5.4" height="287.8" class="partfire" />
<rect x="742.6" y="99.6" width="2.7" height="84.2" class="part" />
<rect x="660.3" y="99.6" width="5.4" height="84.2" class="partfire" />
<rect x="580.6" y="178.4" width="2.7" height="75.6" class="part" />
<rect x="580.6" y="99.6" width="2.7" height="78.8" class="part" />
<rect x="646.3" y="252.6" width="16.7" height="2.7" class="part" />
<rect x="582.0" y="252.6" width="16.7" height="2.7" class="part" />
<rect x="510.4" y="178.4" width="2.7" height="75.6" class="part" />
<rect x="511.8" y="177.0" width="70.2" height="2.7" class="part" />
<rect x="561.2" y="252.6" width="20.8" height="2.7" class="part" />
<rect x="511.8" y="252.6" width="20.8" height="2.7" class="part" />
<rect x="507.2" y="252.6" width="4.6" height="2.7" class="part" />
<rect x="474.0" y="252.6" width="4.6" height="2.7" class="part" />
<rect x="472.6" y="178.4" width="2.7" height="75.6" class="part" />
<rect x="472.6" y="99.6" width="2.7" height="78.8" class="part" />
<rect x="472.6" y="362.0" width="2.7" height="208.4" class="part" />
<rect x="282.3" y="99.6" width="5.4" height="127.4" class="partfire" />
<rect x="282.3" y="227.0" width="5.4" height="343.4" class="partfire" />
<rect x="218.3" y="225.6" width="66.7" height="2.7" class="part" />
<rect x="103.6" y="225.6" width="86.1" height="2.7" class="part" />
<polygon points="846.6,524.5 803.4,524.5 803.4,502.9 846.6,502.9" class="furn" />
<polygon points="846.6,501.9 803.4,501.9 803.4,480.3 846.6,480.3" class="furn" />
<polygon points="818.3,523.7 831.8,523.7 831.8,537.8 818.3,537.8" class="furn" />
<polygon points="831.8,481.1 818.3,481.1 818.3,467.0 831.8,467.0" class="furn" />
<polygon points="802.9,524.5 759.7,524.5 759.7,502.9 802.9,502.9" class="furn" />
<polygon points="802.9,501.9 759.7,501.9 759.7,480.3 802.9,480.3" class="furn" />
<polygon points="774.5,523.7 788.0,523.7 788.0,537.8 774.5,537.8" class="furn" />
<polygon points="788.0,481.1 774.5,481.1 774.5,467.0 788.0,467.0" class="furn" />
<polygon points="759.1,524.5 715.9,524.5 715.9,502.9 759.1,502.9" class="furn" />
<polygon points="759.1,501.9 715.9,501.9 715.9,480.3 759.1,480.3" class="furn" />
<polygon points="730.8,523.7 744.3,523.7 744.3,537.8 730.8,537.8" class="furn" />
<polygon points="744.3,481.1 730.8,481.1 730.8,467.0 744.3,467.0" class="furn" />
<polygon points="846.6,427.3 803.4,427.3 803.4,405.7 846.6,405.7" class="furn" />
<polygon points="846.6,404.7 803.4,404.7 803.4,383.1 846.6,383.1" class="furn" />
<polygon points="818.3,426.5 831.8,426.5 831.8,440.6 818.3,440.6" class="furn" />
<polygon points="831.8,383.9 818.3,383.9 818.3,369.8 831.8,369.8" class="furn" />
<polygon points="802.9,427.3 759.7,427.3 759.7,405.7 802.9,405.7" class="furn" />
<polygon points="802.9,404.7 759.7,404.7 759.7,383.1 802.9,383.1" class="furn" />
<polygon points="774.5,426.5 788.0,426.5 788.0,440.6 774.5,440.6" class="furn" />
<polygon points="788.0,383.9 774.5,383.9 774.5,369.8 788.0,369.8" class="furn" />
<polygon points="822.3,325.6 762.9,325.6 762.9,306.7 822.3,306.7" class="furn" />
<polygon points="821.0,304.2 807.5,304.2 807.5,290.2 821.0,290.2" class="furn" />
<polygon points="807.5,328.0 821.0,328.0 821.0,342.0 807.5,342.0" class="furn" />
<polygon points="799.4,304.2 785.9,304.2 785.9,290.2 799.4,290.2" class="furn" />
<polygon points="785.9,328.0 799.4,328.0 799.4,342.0 785.9,342.0" class="furn" />
<polygon points="777.8,304.2 764.3,304.2 764.3,290.2 777.8,290.2" class="furn" />
<polygon points="764.3,328.0 777.8,328.0 777.8,342.0 764.3,342.0" class="furn" />
<polygon points="814.9,255.3 814.9,204.1 837.8,204.1 837.8,255.3" class="furn" />
<polygon points="764.3,200.7 815.5,200.7 815.5,223.6 764.3,223.6" class="furn" />
<polygon points="803.4,248.6 781.8,248.6 781.8,227.0 803.4,227.0" class="furn" />
<polygon points="830.4,574.6 808.8,574.6 808.8,562.5 830.4,562.5" class="furn" />
<polygon points="806.1,574.6 784.5,574.6 784.5,562.5 806.1,562.5" class="furn" />
<polygon points="781.8,574.6 760.2,574.6 760.2,562.5 781.8,562.5" class="furn" />
<polygon points="757.5,574.6 735.9,574.6 735.9,562.5 757.5,562.5" class="furn" />
<polygon points="669.1,416.0 669.1,394.4 681.2,394.4 681.2,416.0" class="furn" />
<polygon points="669.1,391.7 669.1,370.1 681.2,370.1 681.2,391.7" class="furn" />
<polygon points="669.1,367.4 669.1,345.8 681.2,345.8 681.2,367.4" class="furn" />
<polygon points="714.3,440.3 681.9,440.3 681.9,407.9 714.3,407.9" class="furn" />
<polygon points="664.4,321.5 664.4,305.3 686.0,305.3 686.0,321.5" class="furn" />
<polygon points="667.0,218.9 667.0,202.7 683.3,202.7 683.3,218.9" class="furn" />
<polygon points="826.4,110.9 761.5,110.9 761.5,94.7 826.4,94.7" class="furn" />
<polygon points="760.7,112.9 744.5,112.9 744.5,95.4 760.7,95.4" class="furn" />
<polygon points="850.6,166.3 791.3,166.3 791.3,147.4 850.6,147.4" class="furn" />
<polygon points="846.6,144.9 833.1,144.9 833.1,130.9 846.6,130.9" class="furn" />
<polygon points="833.1,167.3 846.6,167.3 846.6,181.4 833.1,181.4" class="furn" />
<polygon points="808.8,144.9 795.3,144.9 795.3,130.9 808.8,130.9" class="furn" />
<polygon points="795.3,167.3 808.8,167.3 808.8,181.4 795.3,181.4" class="furn" />
<polygon points="711.6,94.7 735.9,94.7 735.9,135.2 711.6,135.2" class="furn" />
<polygon points="684.6,94.7 708.9,94.7 708.9,135.2 684.6,135.2" class="furn" />
<polygon points="739.3,137.2 739.3,149.4 729.8,149.4 729.8,137.2" class="furn" />
<polygon points="665.0,146.0 665.0,129.8 677.2,129.8 677.2,146.0" class="furn" />
<polygon points="665.0,127.1 665.0,110.9 677.2,110.9 677.2,127.1" class="furn" />
<polygon points="727.8,137.4 719.7,137.4 719.7,129.3 727.8,129.3" class="furn" />
<polygon points="687.3,137.4 679.2,137.4 679.2,129.3 687.3,129.3" class="furn" />
<polygon points="646.8,229.7 646.8,197.3 660.3,197.3 660.3,229.7" class="furn" />
<polygon points="649.5,189.2 649.5,181.1 663.0,181.1 663.0,189.2" class="furn" />
<polygon points="649.5,180.6 649.5,172.5 663.0,172.5 663.0,180.6" class="furn" />
<polygon points="649.5,171.9 649.5,163.8 663.0,163.8 663.0,171.9" class="furn" />
<polygon points="649.5,163.3 649.5,155.2 663.0,155.2 663.0,163.3" class="furn" />
<polygon points="582.7,219.6 582.7,207.4 592.1,207.4 592.1,219.6" class="furn" />
<polygon points="582.7,204.7 582.7,192.6 592.1,192.6 592.1,204.7" class="furn" />
<polygon points="622.5,160.9 622.5,185.1 582.0,185.1 582.0,160.9" class="furn" />
<polygon points="622.5,135.2 622.5,159.5 582.0,159.5 582.0,135.2" class="furn" />
<polygon points="648.8,148.7 648.8,132.5 661.0,132.5 661.0,148.7" class="furn" />
<polygon points="648.8,133.9 648.8,117.6 661.0,117.6 661.0,133.9" class="furn" />
<polygon points="654.9,116.3 630.6,116.3 630.6,92.0 654.9,92.0" class="furn" />
<polygon points="627.9,116.3 603.6,116.3 603.6,92.0 627.9,92.0" class="furn" />
<polygon points="646.8,168.9 638.7,168.9 638.7,160.8 646.8,160.8" class="furn" />
<polygon points="606.3,168.9 598.2,168.9 598.2,160.8 606.3,160.8" class="furn" />
<polygon points="558.4,182.4 570.5,182.4 570.5,201.3 558.4,201.3" class="furn" />
<polygon points="575.9,221.6 575.9,237.8 563.8,237.8 563.8,221.6" class="furn" />
<polygon points="512.5,231.0 512.5,206.8 527.3,206.8 527.3,231.0" class="furn" />
<polygon points="568.5,216.5 560.4,216.5 560.4,208.4 568.5,208.4" class="furn" />
<polygon points="533.4,216.5 525.3,216.5 525.3,208.4 533.4,208.4" class="furn" />
<polygon points="498.3,225.7 498.3,217.6 511.8,217.6 511.8,225.7" class="furn" />
<polygon points="498.3,217.0 498.3,208.9 511.8,208.9 511.8,217.0" class="furn" />
<polygon points="498.3,208.4 498.3,200.3 511.8,200.3 511.8,208.4" class="furn" />
<polygon points="499.0,194.6 499.0,178.4 511.1,178.4 511.1,194.6" class="furn" />
<polygon points="506.4,216.5 498.3,216.5 498.3,208.4 506.4,208.4" class="furn" />
<polygon points="487.5,216.5 479.4,216.5 479.4,208.4 487.5,208.4" class="furn" />
<polygon points="549.6,93.4 573.9,93.4 573.9,133.9 549.6,133.9" class="furn" />
<polygon points="522.6,93.4 546.9,93.4 546.9,133.9 522.6,133.9" class="furn" />
<polygon points="521.3,121.7 497.0,121.7 497.0,97.4 521.3,97.4" class="furn" />
<polygon points="496.9,121.7 472.7,121.7 472.7,97.4 496.9,97.4" class="furn" />
<polygon points="575.3,175.7 542.9,175.7 542.9,162.2 575.3,162.2" class="furn" />
<polygon points="518.5,175.0 502.3,175.0 502.3,162.9 518.5,162.9" class="furn" />
<polygon points="559.0,134.9 551.0,134.9 551.0,126.8 559.0,126.8" class="furn" />
<polygon points="505.1,134.9 496.9,134.9 496.9,126.8 505.1,126.8" class="furn" />
<polygon points="646.8,488.9 582.0,488.9 582.0,467.3 646.8,467.3" class="furnkey" />
<polygon points="541.5,486.9 509.1,486.9 509.1,469.3 541.5,469.3" class="furnkey" />
<polygon points="650.2,495.6 650.2,468.6 662.3,468.6 662.3,495.6" class="furn" />
<polygon points="650.2,465.9 650.2,438.9 662.3,438.9 662.3,465.9" class="furn" />
<polygon points="663.0,519.3 646.8,519.3 646.8,501.7 663.0,501.7" class="furn" />
<polygon points="646.8,437.6 646.8,394.4 663.0,394.4 663.0,437.6" class="furn" />
<polygon points="649.5,559.1 579.3,559.1 579.3,526.7 649.5,526.7" class="furn" />
<polygon points="524.0,557.8 491.6,557.8 491.6,544.3 524.0,544.3" class="furn" />
<polygon points="480.8,545.6 480.8,497.0 491.5,497.0 491.5,545.6" class="furn" />
<polygon points="518.5,574.0 510.4,574.0 510.4,563.1 518.5,563.1" class="furn" />
<polygon points="509.9,574.0 501.8,574.0 501.8,563.1 509.9,563.1" class="furn" />
<polygon points="501.3,574.0 493.2,574.0 493.2,563.1 501.3,563.1" class="furn" />
<polygon points="630.6,291.8 663.0,291.8 663.0,416.0 630.6,416.0" class="furnkey" />
<polygon points="625.2,370.1 587.4,370.1 587.4,326.9 625.2,326.9" class="furnkey" />
<polygon points="642.8,406.5 610.4,406.5 610.4,374.1 642.8,374.1" class="furn" />
<polygon points="586.0,347.1 521.3,347.1 521.3,322.9 586.0,322.9" class="furn" />
<polygon points="563.1,348.2 576.6,348.2 576.6,362.3 563.1,362.3" class="furn" />
<polygon points="576.6,321.8 563.1,321.8 563.1,307.7 576.6,307.7" class="furn" />
<polygon points="546.9,348.2 560.4,348.2 560.4,362.3 546.9,362.3" class="furn" />
<polygon points="560.4,321.8 546.9,321.8 546.9,307.7 560.4,307.7" class="furn" />
<polygon points="530.7,348.2 544.2,348.2 544.2,362.3 530.7,362.3" class="furn" />
<polygon points="544.2,321.8 530.7,321.8 530.7,307.7 544.2,307.7" class="furn" />
<polygon points="474.3,510.5 474.3,402.5 476.4,402.5 476.4,510.5" class="furn" />
<polygon points="461.8,575.8 437.6,575.8 437.6,572.6 461.8,572.6" class="furn" />
<polygon points="397.0,549.6 429.4,549.6 429.4,557.8 397.0,557.8" class="furn" />
<polygon points="441.6,540.9 384.9,540.9 384.9,458.5 441.6,458.5" class="furnkey" />
<polygon points="375.5,540.9 318.8,540.9 318.8,458.5 375.5,458.5" class="furnkey" />
<polygon points="441.6,448.4 318.8,448.4 318.8,362.0 441.6,362.0" class="furnkey" />
<polygon points="441.6,351.9 384.9,351.9 384.9,269.5 441.6,269.5" class="furnkey" />
<polygon points="375.5,351.9 318.8,351.9 318.8,269.5 375.5,269.5" class="furnkey" />
<polygon points="441.6,260.1 384.9,260.1 384.9,177.7 441.6,177.7" class="furnkey" />
<polygon points="375.5,260.1 318.8,260.1 318.8,177.7 375.5,177.7" class="furnkey" />
<polygon points="441.9,540.2 441.9,378.2 444.0,378.2 444.0,540.2" class="furn" />
<polygon points="441.9,378.2 441.9,216.2 444.0,216.2 444.0,378.2" class="furn" />
<polygon points="315.0,540.2 315.0,378.2 317.1,378.2 317.1,540.2" class="furn" />
<polygon points="315.0,378.2 315.0,216.2 317.1,216.2 317.1,378.2" class="furn" />
<polygon points="444.3,164.9 384.9,164.9 384.9,105.5 444.3,105.5" class="furn" />
<polygon points="374.1,164.9 314.7,164.9 314.7,105.5 374.1,105.5" class="furn" />
<polygon points="321.5,229.7 289.0,229.7 289.0,105.5 321.5,105.5" class="furnkey" />
<polygon points="274.2,123.1 201.3,123.1 201.3,93.4 274.2,93.4" class="furn" />
<polygon points="195.9,123.1 123.0,123.1 123.0,93.4 195.9,93.4" class="furn" />
<polygon points="255.3,198.6 255.3,125.8 285.0,125.8 285.0,198.6" class="furn" />
<polygon points="177.0,218.9 128.4,218.9 128.4,205.4 177.0,205.4" class="furn" />
<polygon points="131.1,227.0 98.7,227.0 98.7,102.8 131.1,102.8" class="furnkey" />
<polygon points="214.8,518.6 128.4,518.6 128.4,507.8 214.8,507.8" class="furnkey" />
<polygon points="196.6,557.8 146.6,557.8 146.6,436.3 196.6,436.3" class="furnkey" />
<polygon points="191.2,390.4 141.2,390.4 141.2,268.9 191.2,268.9" class="furnkey" />
<polygon points="225.6,486.2 225.6,432.2 247.2,432.2 247.2,486.2" class="furn" />
<polygon points="244.5,479.4 228.3,479.4 228.3,463.3 244.5,463.3" class="furn" />
<polygon points="244.5,457.9 228.3,457.9 228.3,441.6 244.5,441.6" class="furn" />
<polygon points="239.1,426.8 239.1,372.8 260.7,372.8 260.7,426.8" class="furn" />
<polygon points="239.1,370.1 239.1,316.1 260.7,316.1 260.7,370.1" class="furn" />
<polygon points="239.1,313.4 239.1,259.4 260.7,259.4 260.7,313.4" class="furn" />
<polygon points="261.4,536.8 261.4,500.4 276.2,500.4 276.2,536.8" class="furn" />
<polygon points="261.4,497.7 261.4,461.2 276.2,461.2 276.2,497.7" class="furn" />
<polygon points="280.3,425.4 260.0,425.4 260.0,411.9 280.3,411.9" class="furn" />
<polygon points="280.3,395.8 260.0,395.8 260.0,382.3 280.3,382.3" class="furn" />
<polygon points="115.2,443.3 98.4,443.3 98.4,426.5 115.2,426.5" class="furn" />
<polygon points="116.3,417.4 97.3,417.4 97.3,403.9 116.3,403.9" class="furn" />
<polygon points="110.8,480.1 110.8,492.3 102.8,492.3 102.8,480.1" class="furn" />
<polygon points="281.6,229.7 281.6,245.9 266.8,245.9 266.8,229.7" class="furn" />
<polygon points="241.8,389.0 233.7,389.0 233.7,380.9 241.8,380.9" class="furn" />
<polygon points="147.3,389.0 139.2,389.0 139.2,380.9 147.3,380.9" class="furn" />
<line x1="630.6" y1="300.7" x2="663.0" y2="300.7" class="door" />
<line x1="630.6" y1="309.5" x2="663.0" y2="309.5" class="door" />
<line x1="630.6" y1="318.4" x2="663.0" y2="318.4" class="door" />
<line x1="630.6" y1="327.3" x2="663.0" y2="327.3" class="door" />
<line x1="630.6" y1="336.2" x2="663.0" y2="336.2" class="door" />
<line x1="630.6" y1="345.0" x2="663.0" y2="345.0" class="door" />
<line x1="630.6" y1="353.9" x2="663.0" y2="353.9" class="door" />
<line x1="630.6" y1="362.8" x2="663.0" y2="362.8" class="door" />
<line x1="630.6" y1="371.6" x2="663.0" y2="371.6" class="door" />
<line x1="630.6" y1="380.5" x2="663.0" y2="380.5" class="door" />
<line x1="630.6" y1="389.4" x2="663.0" y2="389.4" class="door" />
<line x1="630.6" y1="398.3" x2="663.0" y2="398.3" class="door" />
<line x1="630.6" y1="407.1" x2="663.0" y2="407.1" class="door" />
<line x1="321.5" y1="220.8" x2="289.0" y2="220.8" class="door" />
<line x1="321.5" y1="212.0" x2="289.0" y2="212.0" class="door" />
<line x1="321.5" y1="203.1" x2="289.0" y2="203.1" class="door" />
<line x1="321.5" y1="194.2" x2="289.0" y2="194.2" class="door" />
<line x1="321.5" y1="185.3" x2="289.0" y2="185.3" class="door" />
<line x1="321.5" y1="176.5" x2="289.0" y2="176.5" class="door" />
<line x1="321.5" y1="167.6" x2="289.0" y2="167.6" class="door" />
<line x1="321.5" y1="158.7" x2="289.0" y2="158.7" class="door" />
<line x1="321.5" y1="149.9" x2="289.0" y2="149.9" class="door" />
<line x1="321.5" y1="141.0" x2="289.0" y2="141.0" class="door" />
<line x1="321.5" y1="132.1" x2="289.0" y2="132.1" class="door" />
<line x1="321.5" y1="123.2" x2="289.0" y2="123.2" class="door" />
<line x1="321.5" y1="114.4" x2="289.0" y2="114.4" class="door" />
<line x1="131.1" y1="218.1" x2="98.7" y2="218.1" class="door" />
<line x1="131.1" y1="209.3" x2="98.7" y2="209.3" class="door" />
<line x1="131.1" y1="200.4" x2="98.7" y2="200.4" class="door" />
<line x1="131.1" y1="191.5" x2="98.7" y2="191.5" class="door" />
<line x1="131.1" y1="182.6" x2="98.7" y2="182.6" class="door" />
<line x1="131.1" y1="173.8" x2="98.7" y2="173.8" class="door" />
<line x1="131.1" y1="164.9" x2="98.7" y2="164.9" class="door" />
<line x1="131.1" y1="156.0" x2="98.7" y2="156.0" class="door" />
<line x1="131.1" y1="147.2" x2="98.7" y2="147.2" class="door" />
<line x1="131.1" y1="138.3" x2="98.7" y2="138.3" class="door" />
<line x1="131.1" y1="129.4" x2="98.7" y2="129.4" class="door" />
<line x1="131.1" y1="120.5" x2="98.7" y2="120.5" class="door" />
<line x1="131.1" y1="111.7" x2="98.7" y2="111.7" class="door" />
<line x1="590.1" y1="574.2" x2="590.1" y2="531.0" class="door" />
<path d="M 590.1 531.0 A 43.2 43.2 0 0 0 546.9 574.2" class="door" stroke-dasharray="3 2"/>
<line x1="590.1" y1="521.3" x2="590.1" y2="478.1" class="door" />
<path d="M 590.1 478.1 A 43.2 43.2 0 0 0 546.9 521.3" class="door" stroke-dasharray="3 2"/>
<line x1="270.1" y1="574.2" x2="270.1" y2="549.9" class="door" />
<path d="M 270.1 549.9 A 24.3 24.3 0 0 0 245.9 574.2" class="door" stroke-dasharray="3 2"/>
<line x1="729.1" y1="183.8" x2="729.1" y2="159.5" class="door" />
<path d="M 729.1 159.5 A 24.3 24.3 0 0 0 704.9 183.8" class="door" stroke-dasharray="3 2"/>
<line x1="663.0" y1="278.3" x2="687.3" y2="278.3" class="door" />
<path d="M 687.3 278.3 A 24.3 24.3 0 0 0 663.0 254.0" class="door" stroke-dasharray="3 2"/>
<line x1="644.1" y1="254.0" x2="644.1" y2="210.8" class="door" />
<path d="M 644.1 210.8 A 43.2 43.2 0 0 0 600.9 254.0" class="door" stroke-dasharray="3 2"/>
<line x1="559.0" y1="254.0" x2="559.0" y2="229.7" class="door" />
<path d="M 559.0 229.7 A 24.3 24.3 0 0 0 534.8 254.0" class="door" stroke-dasharray="3 2"/>
<line x1="505.0" y1="254.0" x2="505.0" y2="229.7" class="door" />
<path d="M 505.0 229.7 A 24.3 24.3 0 0 0 480.8 254.0" class="door" stroke-dasharray="3 2"/>
<line x1="216.1" y1="227.0" x2="216.1" y2="202.7" class="door" />
<path d="M 216.1 202.7 A 24.3 24.3 0 0 0 191.9 227.0" class="door" stroke-dasharray="3 2"/>
<text x="757.5" y="378.9" class="lblrm" text-anchor="middle" style="font-size:11.5px" >Komunitní prostor</text>
<text x="757.5" y="390.4" class="lblar" text-anchor="middle" style="font-size:9.5px" >102,2 m²</text>
<text x="798.0" y="135.9" class="lblrm" text-anchor="middle" style="font-size:11.5px" >Kuchyňský kout</text>
<text x="798.0" y="147.4" class="lblar" text-anchor="middle" style="font-size:9.5px" >13,6 m²</text>
<text x="703.5" y="135.9" class="lblrm" text-anchor="middle" style="font-size:11.5px" >WC</text>
<text x="703.5" y="147.4" class="lblar" text-anchor="middle" style="font-size:9.5px" >10,2 m²</text>
<text x="622.5" y="166.6" class="lblrm" text-anchor="middle" style="font-size:8px" >Šatna + sprchy</text>
<text x="622.5" y="175.4" class="lblrm" text-anchor="middle" style="font-size:8px" >páni</text>
<text x="622.5" y="183.4" class="lblar" text-anchor="middle" style="font-size:7.5px" >18,0 m²</text>
<text x="546.9" y="214.2" class="lblrm" text-anchor="middle" style="font-size:8px" >WC bezbariérové</text>
<text x="546.9" y="222.2" class="lblar" text-anchor="middle" style="font-size:7.5px" >7,3 m²</text>
<text x="492.9" y="214.2" class="lblrm" text-anchor="middle" style="font-size:11.5px" transform="rotate(-90 492.9 216.2)">Šatna dámy — vstup</text>
<text x="492.9" y="225.7" class="lblar" text-anchor="middle" style="font-size:9.5px" transform="rotate(-90 492.9 216.2)">3,9 m²</text>
<text x="528.0" y="126.9" class="lblrm" text-anchor="middle" style="font-size:11.5px" >Šatna + sprchy</text>
<text x="528.0" y="139.5" class="lblrm" text-anchor="middle" style="font-size:11.5px" >dámy</text>
<text x="528.0" y="151.0" class="lblar" text-anchor="middle" style="font-size:9.5px" >12,8 m²</text>
<text x="568.5" y="414.0" class="lblrm" text-anchor="middle" style="font-size:11.5px" >Lobby / recepce / bar</text>
<text x="568.5" y="425.5" class="lblar" text-anchor="middle" style="font-size:9.5px" >84,0 m²</text>
<text x="379.5" y="333.0" class="lblrm" text-anchor="middle" style="font-size:11.5px" >Jump aréna</text>
<text x="379.5" y="344.5" class="lblar" text-anchor="middle" style="font-size:9.5px" >126,0 m²</text>
<text x="190.5" y="157.5" class="lblrm" text-anchor="middle" style="font-size:11.5px" >Sklad</text>
<text x="190.5" y="169.0" class="lblar" text-anchor="middle" style="font-size:9.5px" >35,0 m²</text>
<text x="190.5" y="400.5" class="lblrm" text-anchor="middle" style="font-size:11.5px" >Sdílená dílna</text>
<text x="190.5" y="412.0" class="lblar" text-anchor="middle" style="font-size:9.5px" >91,0 m²</text>
<line x1="852.0" y1="634.0" x2="663.0" y2="634.0" class="dim" />
<line x1="852.0" y1="630.0" x2="852.0" y2="638.0" class="dim" />
<line x1="663.0" y1="630.0" x2="663.0" y2="638.0" class="dim" />
<text x="757.5" y="629.0" class="dimt" text-anchor="middle">7,00</text>
<line x1="663.0" y1="634.0" x2="474.0" y2="634.0" class="dim" />
<line x1="663.0" y1="630.0" x2="663.0" y2="638.0" class="dim" />
<line x1="474.0" y1="630.0" x2="474.0" y2="638.0" class="dim" />
<text x="568.5" y="629.0" class="dimt" text-anchor="middle">7,00</text>
<line x1="474.0" y1="634.0" x2="285.0" y2="634.0" class="dim" />
<line x1="474.0" y1="630.0" x2="474.0" y2="638.0" class="dim" />
<line x1="285.0" y1="630.0" x2="285.0" y2="638.0" class="dim" />
<text x="379.5" y="629.0" class="dimt" text-anchor="middle">7,00</text>
<line x1="285.0" y1="634.0" x2="96.0" y2="634.0" class="dim" />
<line x1="285.0" y1="630.0" x2="285.0" y2="638.0" class="dim" />
<line x1="96.0" y1="630.0" x2="96.0" y2="638.0" class="dim" />
<text x="190.5" y="629.0" class="dimt" text-anchor="middle">7,00</text>
<line x1="852.0" y1="660.0" x2="96.0" y2="660.0" class="dim" />
<line x1="852.0" y1="656.0" x2="852.0" y2="664.0" class="dim" />
<line x1="96.0" y1="656.0" x2="96.0" y2="664.0" class="dim" />
<text x="474.0" y="655.0" class="dimt" text-anchor="middle">28,00</text>
<line x1="942.0" y1="578.0" x2="942.0" y2="92.0" class="dim" />
<line x1="938.0" y1="578.0" x2="946.0" y2="578.0" class="dim" />
<line x1="938.0" y1="92.0" x2="946.0" y2="92.0" class="dim" />
<text x="936.0" y="335.0" class="dimt" text-anchor="middle" transform="rotate(-90 936.0 335.0)">18,00</text>
<text x="474.0" y="612.0" class="lblsm" text-anchor="middle">JIH — všechny vstupy a vjezdy</text>
<text x="474.0" y="80.0" class="lblsm" text-anchor="middle">SEVER — hranice pozemku, slepá stěna bez otvorů</text>
<text x="860.0" y="80.0" class="lblsm" text-anchor="end">VÝCHOD — prosklené průčelí</text>
<text x="88.0" y="80.0" class="lblsm" >ZÁPAD — dočasný štít (etapa 2)</text>
<line x1="62.0" y1="416.0" x2="874.0" y2="416.0" class="dim" stroke-dasharray="12 4 3 4" stroke-width="1.4"/>
<text x="878.0" y="411.0" class="axis" >A</text>
<text x="58.0" y="411.0" class="axis" text-anchor="end">A</text>
<line x1="190.5" y1="68.0" x2="190.5" y2="600.0" class="dim" stroke-dasharray="12 4 3 4" stroke-width="1.4"/>
<text x="195.5" y="66.0" class="axis" >B</text>
<text x="195.5" y="612.0" class="axis" >B</text>
<circle cx="50.0" cy="114.0" r="15.0" fill="#fff" stroke="#2b2f36" stroke-width="1"/>
<polygon points="50.0,94.0 45.5,120.8 50.0,114.8 54.5,120.8" class="wall" />
<text x="50.0" y="90.0" class="axis" text-anchor="middle">S</text>
<rect x="96.0" y="694.0" width="16.0" height="9.0" class="wall" />
<text x="117.0" y="702.0" class="lblsm" >obvodový plášť</text>
<rect x="207.0" y="694.0" width="16.0" height="9.0" class="part" />
<text x="228.0" y="702.0" class="lblsm" >příčka</text>
<rect x="278.0" y="694.0" width="16.0" height="9.0" class="partfire" />
<text x="299.0" y="702.0" class="lblsm" >požárně dělicí konstrukce</text>
<rect x="444.0" y="694.0" width="16.0" height="9.0" class="glassw" />
<text x="465.0" y="702.0" class="lblsm" >prosklení</text>
<rect x="530.0" y="694.0" width="16.0" height="9.0" class="walltemp" />
<text x="551.0" y="702.0" class="lblsm" >dočasný štít</text>
<line x1="40.0" y1="732.0" x2="977.0" y2="732.0" class="frame" />
<text x="40.0" y="756.0" class="ttl" >BUDOVA 1P — studie dispozice, etapa 1 · A — FIREMNÍ BUDOVA</text>
<text x="40.0" y="774.0" class="sub" >PŮDORYS PŘÍZEMÍ (± 0,000) · vodorovný řez v úrovni +1,20 m</text>
<text x="40.0" y="789.0" class="sub" >Pozemek: ul. Kouřimského, Pelhřimov — nová odbočka mezi Optokonem a Wehou</text>
<text x="40.0" y="804.0" class="sub" >Generováno ze src/spec.js · 23. 8. 2026 · 18 × 56 m, etapa 1 = 18 × 28 m, rastr 7 m</text>
<text x="40.0" y="819.0" class="warn" >NENÍ projektová dokumentace — nástroj na hledání poměrů ploch před zadáním projektantovi.</text>
<text x="977.0" y="722.0" class="sub" text-anchor="end">přízemí 504 m² · světlá výška 3,00 m</text>
<rect x="707.0" y="794.0" width="67.5" height="6.0" class="frame" />
<rect x="774.5" y="794.0" width="67.5" height="6.0" class="wall" />
<rect x="842.0" y="794.0" width="67.5" height="6.0" class="frame" />
<rect x="909.5" y="794.0" width="67.5" height="6.0" class="wall" />
<text x="707.0" y="811.0" class="dimt" >0</text>
<text x="977.0" y="811.0" class="dimt" text-anchor="end">10 m</text>
</svg>
