<svg xmlns="http://www.w3.org/2000/svg" width="1017" height="828" viewBox="0 0 1017 828" font-family="Helvetica, Arial, sans-serif">
<style>
  .bg{fill:#ffffff}
  .wall{fill:#2b2f36;stroke:none}
  .walltemp{fill:#8f959d;stroke:#2b2f36;stroke-width:0.7;stroke-dasharray:4 3}
  .glassw{fill:#bcd9e6;stroke:#2b2f36;stroke-width:0.7}
  .part{fill:#5b616a;stroke:none}
  .partfire{fill:#b4544a;stroke:none}
  .room{stroke:none}
  .void{fill:#eceff3;stroke:#9aa1ab;stroke-width:0.8;stroke-dasharray:5 4}
  .furn{fill:#ffffff;fill-opacity:0.55;stroke:#6d747d;stroke-width:0.7}
  .furnkey{fill:#ffffff;fill-opacity:0.75;stroke:#2b2f36;stroke-width:1.1}
  .beyond{fill:#ffffff;fill-opacity:0.5;stroke:#a7adb6;stroke-width:0.7}
  .slab{fill:#7d848d;stroke:#2b2f36;stroke-width:0.6}
  .roof{fill:#4a505a;stroke:none}
  .ground{stroke:#2b2f36;stroke-width:2.2;fill:none}
  .grid{stroke:#c2c8d0;stroke-width:0.8;stroke-dasharray:9 4 2 4;fill:none}
  .dim{stroke:#2b2f36;stroke-width:0.7;fill:none}
  .lead{stroke:#8b929b;stroke-width:0.6;fill:none}
  .door{stroke:#2b2f36;stroke-width:0.9;fill:none}
  .frame{fill:none;stroke:#2b2f36;stroke-width:1.2}
  .thin{fill:none;stroke:#2b2f36;stroke-width:0.8}
  .hatch{fill:none;stroke:#2b2f36;stroke-width:0.7}
  text{fill:#20242a}
  .lbl{font-size:11px}
  .lblsm{font-size:9px;fill:#5b616a}
  .lblrm{font-size:11.5px;font-weight:700}
  .lblar{font-size:9.5px;fill:#4a505a}
  .ttl{font-size:19px;font-weight:700;letter-spacing:0.2px}
  .sub{font-size:11px;fill:#5b616a}
  .axis{font-size:10px;font-weight:700;fill:#2b2f36}
  .dimt{font-size:9.5px;fill:#2b2f36}
  .warn{font-size:9.5px;fill:#a3453c}
  .onwall{font-size:9px;fill:#e6eaef}
  .pvpanel{fill:#3d4a6b;stroke:#8ea0c4;stroke-width:0.7}
  .portal{fill:none;stroke:#ffffff;stroke-width:1.8}
  .portallime{fill:none;stroke:#bfe32e;stroke-width:1.6}
</style>
<rect class="bg" x="0" y="0" width="1017" height="828"/>
<rect x="663.0" y="491.6" width="189.0" height="86.4" class="room" fill="#fcedd8"/>
<rect x="663.0" y="335.0" width="102.6" height="156.6" class="room" fill="#f4f5f6"/>
<rect x="765.6" y="183.8" width="86.4" height="307.8" class="room" fill="#dbe9f7"/>
<rect x="663.0" y="183.8" width="102.6" height="151.2" class="room" fill="#dbe9f7"/>
<rect x="744.0" y="92.0" width="108.0" height="91.8" class="room" fill="#fcedd8"/>
<rect x="663.0" y="92.0" width="81.0" height="91.8" class="room" fill="#d7efee"/>
<rect x="590.1" y="453.8" width="72.9" height="124.2" class="room" fill="#f9f0db"/>
<rect x="590.1" y="389.0" width="72.9" height="64.8" class="room" fill="#d7efee"/>
<rect x="552.3" y="389.0" width="37.8" height="189.0" class="room" fill="#f9f0db"/>
<rect x="474.0" y="453.8" width="78.3" height="124.2" class="room" fill="#f9f0db"/>
<rect x="474.0" y="389.0" width="78.3" height="64.8" class="room" fill="#f9f0db"/>
<rect x="285.0" y="453.8" width="72.9" height="124.2" class="room" fill="#f9f0db"/>
<rect x="285.0" y="389.0" width="72.9" height="64.8" class="room" fill="#d7efee"/>
<rect x="357.9" y="389.0" width="37.8" height="189.0" class="room" fill="#f9f0db"/>
<rect x="395.7" y="453.8" width="78.3" height="124.2" class="room" fill="#f9f0db"/>
<rect x="395.7" y="389.0" width="78.3" height="64.8" class="room" fill="#f9f0db"/>
<rect x="474.0" y="200.0" width="189.0" height="189.0" class="room" fill="#dbf3e1"/>
<rect x="366.0" y="200.0" width="108.0" height="189.0" class="room" fill="#e8e1f9"/>
<rect x="285.0" y="200.0" width="81.0" height="189.0" class="room" fill="#f3f4f5"/>
<rect x="555.0" y="92.0" width="108.0" height="108.0" class="room" fill="#d7efee"/>
<rect x="285.0" y="92.0" width="270.0" height="108.0" class="room" fill="#f3f4f5"/>
<rect x="96.0" y="227.0" width="189.0" height="351.0" class="room" fill="#e8e9ea"/>
<rect x="96.0" y="92.0" width="189.0" height="135.0" class="room" fill="#efe8de"/>
<line x1="852.0" y1="60.0" x2="852.0" y2="598.0" class="grid" />
<circle cx="852.0" cy="50.0" r="10.0" fill="#fff" stroke="#2b2f36" stroke-width="1"/>
<text x="852.0" y="54.0" class="axis" text-anchor="middle">1</text>
<line x1="663.0" y1="60.0" x2="663.0" y2="598.0" class="grid" />
<circle cx="663.0" cy="50.0" r="10.0" fill="#fff" stroke="#2b2f36" stroke-width="1"/>
<text x="663.0" y="54.0" class="axis" text-anchor="middle">2</text>
<line x1="474.0" y1="60.0" x2="474.0" y2="598.0" class="grid" />
<circle cx="474.0" cy="50.0" r="10.0" fill="#fff" stroke="#2b2f36" stroke-width="1"/>
<text x="474.0" y="54.0" class="axis" text-anchor="middle">3</text>
<line x1="285.0" y1="60.0" x2="285.0" y2="598.0" class="grid" />
<circle cx="285.0" cy="50.0" r="10.0" fill="#fff" stroke="#2b2f36" stroke-width="1"/>
<text x="285.0" y="54.0" class="axis" text-anchor="middle">4</text>
<line x1="96.0" y1="60.0" x2="96.0" y2="598.0" class="grid" />
<circle cx="96.0" cy="50.0" r="10.0" fill="#fff" stroke="#2b2f36" stroke-width="1"/>
<text x="96.0" y="54.0" class="axis" text-anchor="middle">5</text>
<circle cx="898.0" cy="578.0" r="10.0" fill="#fff" stroke="#2b2f36" stroke-width="1"/>
<text x="898.0" y="582.0" class="axis" text-anchor="middle">A</text>
<circle cx="898.0" cy="92.0" r="10.0" fill="#fff" stroke="#2b2f36" stroke-width="1"/>
<text x="898.0" y="96.0" class="axis" text-anchor="middle">B</text>
<rect x="96.0" y="92.0" width="756.0" height="6.8" class="wall" />
<rect x="96.0" y="571.3" width="756.0" height="6.8" class="wall" />
<rect x="845.3" y="92.0" width="6.8" height="486.0" class="glassw" />
<rect x="96.0" y="92.0" width="6.8" height="486.0" class="walltemp" />
<line x1="845.3" y1="537.5" x2="852.0" y2="537.5" class="thin" />
<line x1="845.3" y1="497.0" x2="852.0" y2="497.0" class="thin" />
<line x1="845.3" y1="456.5" x2="852.0" y2="456.5" class="thin" />
<line x1="845.3" y1="416.0" x2="852.0" y2="416.0" class="thin" />
<line x1="845.3" y1="375.5" x2="852.0" y2="375.5" class="thin" />
<line x1="845.3" y1="335.0" x2="852.0" y2="335.0" class="thin" />
<line x1="845.3" y1="294.5" x2="852.0" y2="294.5" class="thin" />
<line x1="845.3" y1="254.0" x2="852.0" y2="254.0" class="thin" />
<line x1="845.3" y1="213.5" x2="852.0" y2="213.5" class="thin" />
<line x1="845.3" y1="173.0" x2="852.0" y2="173.0" class="thin" />
<line x1="845.3" y1="132.5" x2="852.0" y2="132.5" class="thin" />
<rect x="717.0" y="571.3" width="81.0" height="6.8" class="room" fill="#ffffff"/>
<line x1="798.0" y1="571.3" x2="798.0" y2="578.0" class="thin" />
<line x1="717.0" y1="571.3" x2="717.0" y2="578.0" class="thin" />
<rect x="557.7" y="571.3" width="27.0" height="6.8" class="room" fill="#ffffff"/>
<line x1="584.7" y1="571.3" x2="584.7" y2="578.0" class="thin" />
<line x1="557.7" y1="571.3" x2="557.7" y2="578.0" class="thin" />
<rect x="363.3" y="571.3" width="27.0" height="6.8" class="room" fill="#ffffff"/>
<line x1="390.3" y1="571.3" x2="390.3" y2="578.0" class="thin" />
<line x1="363.3" y1="571.3" x2="363.3" y2="578.0" class="thin" />
<rect x="241.8" y="571.3" width="32.4" height="6.8" class="room" fill="#ffffff"/>
<line x1="274.2" y1="571.3" x2="274.2" y2="578.0" class="thin" />
<line x1="241.8" y1="571.3" x2="241.8" y2="578.0" class="thin" />
<rect x="117.6" y="571.3" width="108.0" height="6.8" class="room" fill="#ffffff"/>
<line x1="225.6" y1="571.3" x2="225.6" y2="578.0" class="thin" />
<line x1="117.6" y1="571.3" x2="117.6" y2="578.0" class="thin" />
<rect x="806.1" y="571.3" width="29.7" height="6.8" class="room" fill="#ffffff"/>
<line x1="835.8" y1="574.6" x2="806.1" y2="574.6" class="thin" />
<rect x="679.2" y="571.3" width="29.7" height="6.8" class="room" fill="#ffffff"/>
<line x1="708.9" y1="574.6" x2="679.2" y2="574.6" class="thin" />
<rect x="599.5" y="571.3" width="54.0" height="6.8" class="room" fill="#ffffff"/>
<line x1="653.5" y1="574.6" x2="599.5" y2="574.6" class="thin" />
<rect x="483.4" y="571.3" width="59.4" height="6.8" class="room" fill="#ffffff"/>
<line x1="542.9" y1="574.6" x2="483.4" y2="574.6" class="thin" />
<rect x="405.2" y="571.3" width="59.4" height="6.8" class="room" fill="#ffffff"/>
<line x1="464.6" y1="574.6" x2="405.2" y2="574.6" class="thin" />
<rect x="294.5" y="571.3" width="54.0" height="6.8" class="room" fill="#ffffff"/>
<line x1="348.4" y1="574.6" x2="294.5" y2="574.6" class="thin" />
<rect x="825.8" y="488.9" width="18.6" height="5.4" class="partfire" />
<rect x="765.6" y="488.9" width="31.6" height="5.4" class="partfire" />
<rect x="660.3" y="491.6" width="5.4" height="78.8" class="partfire" />
<rect x="762.9" y="335.0" width="5.4" height="156.6" class="partfire" />
<rect x="717.8" y="332.3" width="47.8" height="5.4" class="partfire" />
<rect x="663.0" y="332.3" width="26.2" height="5.4" class="partfire" />
<rect x="660.3" y="453.8" width="5.4" height="37.8" class="partfire" />
<rect x="660.3" y="389.0" width="5.4" height="64.8" class="partfire" />
<rect x="661.6" y="385.8" width="2.7" height="3.2" class="part" />
<rect x="661.6" y="335.0" width="2.7" height="3.2" class="part" />
<rect x="717.8" y="182.4" width="26.2" height="2.7" class="part" />
<rect x="663.0" y="182.4" width="26.2" height="2.7" class="part" />
<rect x="660.3" y="200.0" width="5.4" height="135.0" class="partfire" />
<rect x="742.6" y="99.6" width="2.7" height="84.2" class="part" />
<rect x="660.3" y="99.6" width="5.4" height="84.2" class="partfire" />
<rect x="590.1" y="452.5" width="72.9" height="2.7" class="part" />
<rect x="588.8" y="565.3" width="2.7" height="5.1" class="part" />
<rect x="588.8" y="453.8" width="2.7" height="82.9" class="part" />
<rect x="588.8" y="449.2" width="2.7" height="4.6" class="part" />
<rect x="588.8" y="389.0" width="2.7" height="31.6" class="part" />
<rect x="590.1" y="386.3" width="72.9" height="5.4" class="partfire" />
<rect x="551.0" y="568.0" width="2.7" height="2.4" class="part" />
<rect x="551.0" y="453.8" width="2.7" height="85.6" class="part" />
<rect x="551.0" y="389.0" width="2.7" height="64.8" class="part" />
<rect x="552.3" y="386.3" width="37.8" height="5.4" class="partfire" />
<rect x="471.3" y="453.8" width="5.4" height="116.6" class="partfire" />
<rect x="471.3" y="389.0" width="5.4" height="64.8" class="partfire" />
<rect x="474.0" y="386.3" width="78.3" height="5.4" class="partfire" />
<rect x="285.0" y="452.5" width="72.9" height="2.7" class="part" />
<rect x="356.5" y="565.3" width="2.7" height="5.1" class="part" />
<rect x="356.5" y="453.8" width="2.7" height="82.9" class="part" />
<rect x="282.3" y="453.8" width="5.4" height="116.6" class="partfire" />
<rect x="356.5" y="449.2" width="2.7" height="4.6" class="part" />
<rect x="356.5" y="389.0" width="2.7" height="31.6" class="part" />
<rect x="285.0" y="386.3" width="72.9" height="5.4" class="partfire" />
<rect x="282.3" y="389.0" width="5.4" height="64.8" class="partfire" />
<rect x="394.4" y="568.0" width="2.7" height="2.4" class="part" />
<rect x="394.4" y="453.8" width="2.7" height="85.6" class="part" />
<rect x="394.4" y="389.0" width="2.7" height="64.8" class="part" />
<rect x="366.0" y="386.3" width="29.7" height="5.4" class="partfire" />
<rect x="395.7" y="386.3" width="78.3" height="5.4" class="partfire" />
<rect x="472.6" y="322.3" width="2.7" height="66.7" class="part" />
<rect x="472.6" y="200.0" width="2.7" height="93.7" class="part" />
<rect x="631.4" y="198.6" width="31.6" height="2.7" class="part" />
<rect x="555.0" y="198.6" width="47.8" height="2.7" class="part" />
<rect x="528.8" y="198.6" width="26.2" height="2.7" class="part" />
<rect x="474.0" y="198.6" width="26.2" height="2.7" class="part" />
<rect x="364.6" y="200.0" width="2.7" height="189.0" class="part" />
<rect x="366.0" y="198.6" width="108.0" height="2.7" class="part" />
<rect x="282.3" y="227.0" width="5.4" height="162.0" class="partfire" />
<rect x="282.3" y="200.0" width="5.4" height="27.0" class="partfire" />
<rect x="553.6" y="99.6" width="2.7" height="100.4" class="part" />
<rect x="282.3" y="99.6" width="5.4" height="100.4" class="partfire" />
<rect x="218.3" y="225.6" width="66.7" height="2.7" class="part" />
<rect x="103.6" y="225.6" width="86.1" height="2.7" class="part" />
<polygon points="733.2,521.3 668.4,521.3 668.4,499.7 733.2,499.7" class="furnkey" />
<polygon points="707.5,504.0 694.0,504.0 694.0,490.0 707.5,490.0" class="furn" />
<polygon points="825.7,568.5 825.7,517.3 848.6,517.3 848.6,568.5" class="furn" />
<polygon points="816.9,553.7 795.3,553.7 795.3,532.1 816.9,532.1" class="furn" />
<polygon points="765.6,475.4 733.2,475.4 733.2,351.2 765.6,351.2" class="furnkey" />
<polygon points="699.5,486.2 661.6,486.2 661.6,443.0 699.5,443.0" class="furnkey" />
<polygon points="846.6,438.1 803.4,438.1 803.4,416.5 846.6,416.5" class="furn" />
<polygon points="846.6,415.5 803.4,415.5 803.4,393.9 846.6,393.9" class="furn" />
<polygon points="818.3,437.3 831.8,437.3 831.8,451.4 818.3,451.4" class="furn" />
<polygon points="831.8,394.7 818.3,394.7 818.3,380.6 831.8,380.6" class="furn" />
<polygon points="846.6,365.2 803.4,365.2 803.4,343.6 846.6,343.6" class="furn" />
<polygon points="846.6,342.6 803.4,342.6 803.4,321.0 846.6,321.0" class="furn" />
<polygon points="818.3,364.4 831.8,364.4 831.8,378.5 818.3,378.5" class="furn" />
<polygon points="831.8,321.8 818.3,321.8 818.3,307.7 831.8,307.7" class="furn" />
<polygon points="846.6,292.3 803.4,292.3 803.4,270.7 846.6,270.7" class="furn" />
<polygon points="846.6,269.7 803.4,269.7 803.4,248.1 846.6,248.1" class="furn" />
<polygon points="818.3,291.5 831.8,291.5 831.8,305.6 818.3,305.6" class="furn" />
<polygon points="831.8,248.9 818.3,248.9 818.3,234.8 831.8,234.8" class="furn" />
<polygon points="756.1,286.9 713.0,286.9 713.0,265.3 756.1,265.3" class="furn" />
<polygon points="756.1,264.3 713.0,264.3 713.0,242.7 756.1,242.7" class="furn" />
<polygon points="727.8,286.1 741.3,286.1 741.3,300.2 727.8,300.2" class="furn" />
<polygon points="741.3,243.5 727.8,243.5 727.8,229.4 741.3,229.4" class="furn" />
<polygon points="712.4,286.9 669.2,286.9 669.2,265.3 712.4,265.3" class="furn" />
<polygon points="712.4,264.3 669.2,264.3 669.2,242.7 712.4,242.7" class="furn" />
<polygon points="684.1,286.1 697.6,286.1 697.6,300.2 684.1,300.2" class="furn" />
<polygon points="697.6,243.5 684.1,243.5 684.1,229.4 697.6,229.4" class="furn" />
<polygon points="698.1,227.0 665.7,227.0 665.7,194.6 698.1,194.6" class="furn" />
<polygon points="661.6,326.9 661.6,310.7 683.3,310.7 683.3,326.9" class="furn" />
<polygon points="664.4,306.7 664.4,290.4 680.5,290.4 680.5,306.7" class="furn" />
<polygon points="826.4,110.9 761.5,110.9 761.5,94.7 826.4,94.7" class="furn" />
<polygon points="760.7,112.9 744.5,112.9 744.5,95.4 760.7,95.4" class="furn" />
<polygon points="850.6,166.3 791.3,166.3 791.3,147.4 850.6,147.4" class="furn" />
<polygon points="846.6,144.9 833.1,144.9 833.1,130.9 846.6,130.9" class="furn" />
<polygon points="833.1,167.3 846.6,167.3 846.6,181.4 833.1,181.4" class="furn" />
<polygon points="808.8,144.9 795.3,144.9 795.3,130.9 808.8,130.9" class="furn" />
<polygon points="795.3,167.3 808.8,167.3 808.8,181.4 795.3,181.4" class="furn" />
<polygon points="711.6,94.7 735.9,94.7 735.9,135.2 711.6,135.2" class="furn" />
<polygon points="684.6,94.7 708.9,94.7 708.9,135.2 684.6,135.2" class="furn" />
<polygon points="739.3,137.2 739.3,149.4 729.8,149.4 729.8,137.2" class="furn" />
<polygon points="665.0,146.0 665.0,129.8 677.2,129.8 677.2,146.0" class="furn" />
<polygon points="665.0,127.1 665.0,110.9 677.2,110.9 677.2,127.1" class="furn" />
<polygon points="727.8,137.4 719.7,137.4 719.7,129.3 727.8,129.3" class="furn" />
<polygon points="687.3,137.4 679.2,137.4 679.2,129.3 687.3,129.3" class="furn" />
<polygon points="644.1,526.7 600.9,526.7 600.9,472.7 644.1,472.7" class="furn" />
<polygon points="645.5,529.4 645.5,486.2 661.6,486.2 661.6,529.4" class="furn" />
<polygon points="660.3,449.8 636.0,449.8 636.0,425.5 660.3,425.5" class="furn" />
<polygon points="659.0,408.6 648.1,408.6 648.1,391.0 659.0,391.0" class="furn" />
<polygon points="611.7,391.0 627.9,391.0 627.9,403.2 611.7,403.2" class="furn" />
<polygon points="607.7,406.6 591.5,406.6 591.5,390.4 607.7,390.4" class="furn" />
<polygon points="648.8,422.2 640.7,422.2 640.7,414.1 648.8,414.1" class="furn" />
<polygon points="612.4,422.2 604.3,422.2 604.3,414.1 612.4,414.1" class="furn" />
<polygon points="576.7,416.0 576.7,394.4 588.9,394.4 588.9,416.0" class="furn" />
<polygon points="522.6,556.4 479.4,556.4 479.4,534.8 522.6,534.8" class="furn" />
<polygon points="494.3,560.2 507.8,560.2 507.8,574.2 494.3,574.2" class="furn" />
<polygon points="507.8,531.0 494.3,531.0 494.3,517.0 507.8,517.0" class="furn" />
<polygon points="474.7,511.9 474.7,460.6 497.6,460.6 497.6,511.9" class="furn" />
<polygon points="549.6,406.6 484.8,406.6 484.8,390.4 549.6,390.4" class="furn" />
<polygon points="474.7,424.1 474.7,407.9 492.2,407.9 492.2,424.1" class="furn" />
<polygon points="347.1,526.7 303.9,526.7 303.9,472.7 347.1,472.7" class="furn" />
<polygon points="302.6,486.2 302.6,529.4 286.4,529.4 286.4,486.2" class="furn" />
<polygon points="312.0,449.8 287.7,449.8 287.7,425.5 312.0,425.5" class="furn" />
<polygon points="299.9,408.6 289.1,408.6 289.1,391.0 299.9,391.0" class="furn" />
<polygon points="320.1,391.0 336.3,391.0 336.3,403.2 320.1,403.2" class="furn" />
<polygon points="356.6,406.6 340.4,406.6 340.4,390.4 356.6,390.4" class="furn" />
<polygon points="343.7,422.2 335.6,422.2 335.6,414.1 343.7,414.1" class="furn" />
<polygon points="307.3,422.2 299.2,422.2 299.2,414.1 307.3,414.1" class="furn" />
<polygon points="371.3,394.4 371.3,416.0 359.1,416.0 359.1,394.4" class="furn" />
<polygon points="468.6,556.4 425.4,556.4 425.4,534.8 468.6,534.8" class="furn" />
<polygon points="440.3,560.2 453.8,560.2 453.8,574.2 440.3,574.2" class="furn" />
<polygon points="453.8,531.0 440.3,531.0 440.3,517.0 453.8,517.0" class="furn" />
<polygon points="473.3,460.6 473.3,511.9 450.4,511.9 450.4,460.6" class="furn" />
<polygon points="463.2,406.6 398.4,406.6 398.4,390.4 463.2,390.4" class="furn" />
<polygon points="473.3,407.9 473.3,424.1 455.8,424.1 455.8,407.9" class="furn" />
<polygon points="617.1,262.1 579.3,262.1 579.3,224.3 617.1,224.3" class="furnkey" />
<polygon points="614.4,249.9 582.0,249.9 582.0,236.4 614.4,236.4" class="furn" />
<polygon points="565.8,262.1 528.0,262.1 528.0,224.3 565.8,224.3" class="furnkey" />
<polygon points="563.1,249.9 530.7,249.9 530.7,236.4 563.1,236.4" class="furn" />
<polygon points="498.3,308.0 498.3,254.0 514.5,254.0 514.5,308.0" class="furn" />
<polygon points="644.1,324.2 590.1,324.2 590.1,297.2 644.1,297.2" class="furn" />
<polygon points="579.3,324.2 525.3,324.2 525.3,297.2 579.3,297.2" class="furn" />
<polygon points="546.9,344.4 514.5,344.4 514.5,330.9 546.9,330.9" class="furn" />
<polygon points="546.9,306.6 514.5,306.6 514.5,293.1 546.9,293.1" class="furn" />
<polygon points="489.5,202.7 489.5,218.9 474.7,218.9 474.7,202.7" class="furn" />
<polygon points="463.2,375.5 420.0,375.5 420.0,316.1 463.2,316.1" class="furnkey" />
<polygon points="417.3,375.5 374.1,375.5 374.1,316.1 417.3,316.1" class="furnkey" />
<polygon points="430.8,275.6 409.2,275.6 409.2,254.0 430.8,254.0" class="furn" />
<polygon points="434.0,271.6 434.0,258.1 448.1,258.1 448.1,271.6" class="furn" />
<polygon points="406.0,258.1 406.0,271.6 391.9,271.6 391.9,258.1" class="furn" />
<polygon points="384.9,222.3 368.7,222.3 368.7,204.7 384.9,204.7" class="furn" />
<polygon points="468.6,227.0 452.4,227.0 452.4,205.4 468.6,205.4" class="furn" />
<polygon points="657.6,158.1 598.2,158.1 598.2,93.4 657.6,93.4" class="furn" />
<polygon points="555.0,124.4 555.0,100.1 595.5,100.1 595.5,124.4" class="furn" />
<polygon points="580.6,160.8 556.4,160.8 556.4,136.5 580.6,136.5" class="furn" />
<polygon points="592.8,193.9 576.6,193.9 576.6,181.8 592.8,181.8" class="furn" />
<polygon points="572.5,193.9 556.3,193.9 556.3,181.8 572.5,181.8" class="furn" />
<polygon points="648.7,190.6 648.7,182.4 662.2,182.4 662.2,190.6" class="furn" />
<polygon points="648.7,181.1 648.7,173.0 662.2,173.0 662.2,181.1" class="furn" />
<polygon points="648.7,171.7 648.7,163.6 662.2,163.6 662.2,171.7" class="furn" />
<polygon points="640.0,144.6 632.0,144.6 632.0,136.6 640.0,136.6" class="furn" />
<polygon points="586.0,144.6 578.0,144.6 578.0,136.6 586.0,136.6" class="furn" />
<polygon points="214.8,518.6 128.4,518.6 128.4,507.8 214.8,507.8" class="furnkey" />
<polygon points="196.6,557.8 146.6,557.8 146.6,436.3 196.6,436.3" class="furnkey" />
<polygon points="191.2,390.4 141.2,390.4 141.2,268.9 191.2,268.9" class="furnkey" />
<polygon points="225.6,486.2 225.6,432.2 247.2,432.2 247.2,486.2" class="furn" />
<polygon points="244.5,479.4 228.3,479.4 228.3,463.3 244.5,463.3" class="furn" />
<polygon points="244.5,457.9 228.3,457.9 228.3,441.6 244.5,441.6" class="furn" />
<polygon points="239.1,426.8 239.1,372.8 260.7,372.8 260.7,426.8" class="furn" />
<polygon points="239.1,370.1 239.1,316.1 260.7,316.1 260.7,370.1" class="furn" />
<polygon points="239.1,313.4 239.1,259.4 260.7,259.4 260.7,313.4" class="furn" />
<polygon points="261.4,536.8 261.4,500.4 276.2,500.4 276.2,536.8" class="furn" />
<polygon points="261.4,497.7 261.4,461.2 276.2,461.2 276.2,497.7" class="furn" />
<polygon points="280.3,425.4 260.0,425.4 260.0,411.9 280.3,411.9" class="furn" />
<polygon points="280.3,395.8 260.0,395.8 260.0,382.3 280.3,382.3" class="furn" />
<polygon points="115.2,443.3 98.4,443.3 98.4,426.5 115.2,426.5" class="furn" />
<polygon points="116.3,417.4 97.3,417.4 97.3,403.9 116.3,403.9" class="furn" />
<polygon points="110.8,480.1 110.8,492.3 102.8,492.3 102.8,480.1" class="furn" />
<polygon points="281.6,229.7 281.6,245.9 266.8,245.9 266.8,229.7" class="furn" />
<polygon points="241.8,389.0 233.7,389.0 233.7,380.9 241.8,380.9" class="furn" />
<polygon points="147.3,389.0 139.2,389.0 139.2,380.9 147.3,380.9" class="furn" />
<polygon points="274.2,123.1 201.3,123.1 201.3,93.4 274.2,93.4" class="furn" />
<polygon points="195.9,123.1 123.0,123.1 123.0,93.4 195.9,93.4" class="furn" />
<polygon points="255.3,198.6 255.3,125.8 285.0,125.8 285.0,198.6" class="furn" />
<polygon points="177.0,218.9 128.4,218.9 128.4,205.4 177.0,205.4" class="furn" />
<polygon points="131.1,227.0 98.7,227.0 98.7,102.8 131.1,102.8" class="furnkey" />
<line x1="765.6" y1="466.5" x2="733.2" y2="466.5" class="door" />
<line x1="765.6" y1="457.7" x2="733.2" y2="457.7" class="door" />
<line x1="765.6" y1="448.8" x2="733.2" y2="448.8" class="door" />
<line x1="765.6" y1="439.9" x2="733.2" y2="439.9" class="door" />
<line x1="765.6" y1="431.0" x2="733.2" y2="431.0" class="door" />
<line x1="765.6" y1="422.2" x2="733.2" y2="422.2" class="door" />
<line x1="765.6" y1="413.3" x2="733.2" y2="413.3" class="door" />
<line x1="765.6" y1="404.4" x2="733.2" y2="404.4" class="door" />
<line x1="765.6" y1="395.6" x2="733.2" y2="395.6" class="door" />
<line x1="765.6" y1="386.7" x2="733.2" y2="386.7" class="door" />
<line x1="765.6" y1="377.8" x2="733.2" y2="377.8" class="door" />
<line x1="765.6" y1="368.9" x2="733.2" y2="368.9" class="door" />
<line x1="765.6" y1="360.1" x2="733.2" y2="360.1" class="door" />
<line x1="131.1" y1="218.1" x2="98.7" y2="218.1" class="door" />
<line x1="131.1" y1="209.3" x2="98.7" y2="209.3" class="door" />
<line x1="131.1" y1="200.4" x2="98.7" y2="200.4" class="door" />
<line x1="131.1" y1="191.5" x2="98.7" y2="191.5" class="door" />
<line x1="131.1" y1="182.6" x2="98.7" y2="182.6" class="door" />
<line x1="131.1" y1="173.8" x2="98.7" y2="173.8" class="door" />
<line x1="131.1" y1="164.9" x2="98.7" y2="164.9" class="door" />
<line x1="131.1" y1="156.0" x2="98.7" y2="156.0" class="door" />
<line x1="131.1" y1="147.2" x2="98.7" y2="147.2" class="door" />
<line x1="131.1" y1="138.3" x2="98.7" y2="138.3" class="door" />
<line x1="131.1" y1="129.4" x2="98.7" y2="129.4" class="door" />
<line x1="131.1" y1="120.5" x2="98.7" y2="120.5" class="door" />
<line x1="131.1" y1="111.7" x2="98.7" y2="111.7" class="door" />
<line x1="779.1" y1="574.2" x2="779.1" y2="531.0" class="door" />
<path d="M 779.1 531.0 A 43.2 43.2 0 0 0 735.9 574.2" class="door" stroke-dasharray="3 2"/>
<line x1="583.4" y1="574.2" x2="583.4" y2="549.9" class="door" />
<path d="M 583.4 549.9 A 24.3 24.3 0 0 0 559.1 574.2" class="door" stroke-dasharray="3 2"/>
<line x1="388.9" y1="574.2" x2="388.9" y2="549.9" class="door" />
<path d="M 388.9 549.9 A 24.3 24.3 0 0 0 364.6 574.2" class="door" stroke-dasharray="3 2"/>
<line x1="270.1" y1="574.2" x2="270.1" y2="549.9" class="door" />
<path d="M 270.1 549.9 A 24.3 24.3 0 0 0 245.9 574.2" class="door" stroke-dasharray="3 2"/>
<line x1="823.6" y1="491.6" x2="823.6" y2="467.3" class="door" />
<path d="M 823.6 467.3 A 24.3 24.3 0 0 0 799.4 491.6" class="door" stroke-dasharray="3 2"/>
<line x1="663.0" y1="383.6" x2="706.2" y2="383.6" class="door" />
<path d="M 706.2 383.6 A 43.2 43.2 0 0 0 663.0 340.4" class="door" stroke-dasharray="3 2"/>
<line x1="474.0" y1="320.1" x2="498.3" y2="320.1" class="door" />
<path d="M 498.3 320.1 A 24.3 24.3 0 0 0 474.0 295.9" class="door" stroke-dasharray="3 2"/>
<line x1="629.3" y1="200.0" x2="629.3" y2="175.7" class="door" />
<path d="M 629.3 175.7 A 24.3 24.3 0 0 0 605.0 200.0" class="door" stroke-dasharray="3 2"/>
<line x1="526.6" y1="200.0" x2="526.6" y2="175.7" class="door" />
<path d="M 526.6 175.7 A 24.3 24.3 0 0 0 502.4 200.0" class="door" stroke-dasharray="3 2"/>
<line x1="715.6" y1="183.8" x2="715.6" y2="159.5" class="door" />
<path d="M 715.6 159.5 A 24.3 24.3 0 0 0 691.4 183.8" class="door" stroke-dasharray="3 2"/>
<line x1="715.6" y1="335.0" x2="715.6" y2="310.7" class="door" />
<path d="M 715.6 310.7 A 24.3 24.3 0 0 0 691.4 335.0" class="door" stroke-dasharray="3 2"/>
<line x1="216.1" y1="227.0" x2="216.1" y2="202.7" class="door" />
<path d="M 216.1 202.7 A 24.3 24.3 0 0 0 191.9 227.0" class="door" stroke-dasharray="3 2"/>
<line x1="590.1" y1="563.1" x2="614.4" y2="563.1" class="door" />
<path d="M 614.4 563.1 A 24.3 24.3 0 0 0 590.1 538.9" class="door" stroke-dasharray="3 2"/>
<line x1="590.1" y1="447.1" x2="614.4" y2="447.1" class="door" />
<path d="M 614.4 447.1 A 24.3 24.3 0 0 0 590.1 422.8" class="door" stroke-dasharray="3 2"/>
<line x1="552.3" y1="565.9" x2="576.6" y2="565.9" class="door" />
<path d="M 576.6 565.9 A 24.3 24.3 0 0 0 552.3 541.5" class="door" stroke-dasharray="3 2"/>
<line x1="357.9" y1="563.1" x2="382.2" y2="563.1" class="door" />
<path d="M 382.2 563.1 A 24.3 24.3 0 0 0 357.9 538.9" class="door" stroke-dasharray="3 2"/>
<line x1="357.9" y1="447.1" x2="382.2" y2="447.1" class="door" />
<path d="M 382.2 447.1 A 24.3 24.3 0 0 0 357.9 422.8" class="door" stroke-dasharray="3 2"/>
<line x1="395.7" y1="565.9" x2="420.0" y2="565.9" class="door" />
<path d="M 420.0 565.9 A 24.3 24.3 0 0 0 395.7 541.5" class="door" stroke-dasharray="3 2"/>
<text x="757.5" y="532.8" class="lblrm" text-anchor="middle" style="font-size:11.5px" >Recepce a vstup</text>
<text x="757.5" y="544.3" class="lblar" text-anchor="middle" style="font-size:9.5px" >22,4 m²</text>
<text x="714.3" y="411.3" class="lblrm" text-anchor="middle" style="font-size:8px" >Schodiště a výtah</text>
<text x="714.3" y="419.3" class="lblar" text-anchor="middle" style="font-size:7.5px" >22,0 m²</text>
<text x="808.8" y="335.7" class="lblrm" text-anchor="middle" style="font-size:8px" >Komunitní prostor</text>
<text x="808.8" y="343.7" class="lblar" text-anchor="middle" style="font-size:7.5px" >36,5 m²</text>
<text x="714.3" y="257.4" class="lblrm" text-anchor="middle" style="font-size:11.5px" >Pracovní zóna</text>
<text x="714.3" y="268.9" class="lblar" text-anchor="middle" style="font-size:9.5px" >21,3 m²</text>
<text x="798.0" y="135.9" class="lblrm" text-anchor="middle" style="font-size:11.5px" >Kuchyňský kout</text>
<text x="798.0" y="147.4" class="lblar" text-anchor="middle" style="font-size:9.5px" >13,6 m²</text>
<text x="703.5" y="135.9" class="lblrm" text-anchor="middle" style="font-size:11.5px" >WC</text>
<text x="703.5" y="147.4" class="lblar" text-anchor="middle" style="font-size:9.5px" >10,2 m²</text>
<text x="626.5" y="507.6" class="lblrm" text-anchor="middle" style="font-size:11.5px" >Ložnice</text>
<text x="626.5" y="520.2" class="lblrm" text-anchor="middle" style="font-size:11.5px" >byt 1</text>
<text x="626.5" y="531.7" class="lblar" text-anchor="middle" style="font-size:9.5px" >12,4 m²</text>
<text x="626.5" y="415.0" class="lblrm" text-anchor="middle" style="font-size:8px" >Koupelna a WC</text>
<text x="626.5" y="423.8" class="lblrm" text-anchor="middle" style="font-size:8px" >byt 1</text>
<text x="626.5" y="431.8" class="lblar" text-anchor="middle" style="font-size:7.5px" >6,5 m²</text>
<text x="571.2" y="481.5" class="lblrm" text-anchor="middle" style="font-size:11.5px" transform="rotate(-90 571.2 483.5)">Předsíň — byt 1</text>
<text x="571.2" y="493.0" class="lblar" text-anchor="middle" style="font-size:9.5px" transform="rotate(-90 571.2 483.5)">9,8 m²</text>
<text x="513.1" y="509.5" class="lblrm" text-anchor="middle" style="font-size:8px" >Obývací pokoj</text>
<text x="513.1" y="518.3" class="lblrm" text-anchor="middle" style="font-size:8px" >byt 1</text>
<text x="513.1" y="526.3" class="lblar" text-anchor="middle" style="font-size:7.5px" >13,3 m²</text>
<text x="513.1" y="415.0" class="lblrm" text-anchor="middle" style="font-size:8px" >Kuchyňský kout</text>
<text x="513.1" y="423.8" class="lblrm" text-anchor="middle" style="font-size:8px" >byt 1</text>
<text x="513.1" y="431.8" class="lblar" text-anchor="middle" style="font-size:7.5px" >7,0 m²</text>
<text x="321.5" y="507.6" class="lblrm" text-anchor="middle" style="font-size:11.5px" >Ložnice</text>
<text x="321.5" y="520.2" class="lblrm" text-anchor="middle" style="font-size:11.5px" >byt 2</text>
<text x="321.5" y="531.7" class="lblar" text-anchor="middle" style="font-size:9.5px" >12,4 m²</text>
<text x="321.5" y="415.0" class="lblrm" text-anchor="middle" style="font-size:8px" >Koupelna a WC</text>
<text x="321.5" y="423.8" class="lblrm" text-anchor="middle" style="font-size:8px" >byt 2</text>
<text x="321.5" y="431.8" class="lblar" text-anchor="middle" style="font-size:7.5px" >6,5 m²</text>
<text x="376.8" y="481.5" class="lblrm" text-anchor="middle" style="font-size:11.5px" transform="rotate(-90 376.8 483.5)">Předsíň — byt 2</text>
<text x="376.8" y="493.0" class="lblar" text-anchor="middle" style="font-size:9.5px" transform="rotate(-90 376.8 483.5)">9,8 m²</text>
<text x="434.9" y="509.5" class="lblrm" text-anchor="middle" style="font-size:8px" >Obývací pokoj</text>
<text x="434.9" y="518.3" class="lblrm" text-anchor="middle" style="font-size:8px" >byt 2</text>
<text x="434.9" y="526.3" class="lblar" text-anchor="middle" style="font-size:7.5px" >13,3 m²</text>
<text x="434.9" y="415.0" class="lblrm" text-anchor="middle" style="font-size:8px" >Kuchyňský kout</text>
<text x="434.9" y="423.8" class="lblrm" text-anchor="middle" style="font-size:8px" >byt 2</text>
<text x="434.9" y="431.8" class="lblar" text-anchor="middle" style="font-size:7.5px" >7,0 m²</text>
<text x="568.5" y="292.5" class="lblrm" text-anchor="middle" style="font-size:11.5px" >Fitness</text>
<text x="568.5" y="304.0" class="lblar" text-anchor="middle" style="font-size:9.5px" >49,0 m²</text>
<text x="420.0" y="292.5" class="lblrm" text-anchor="middle" style="font-size:11.5px" >Sim racing</text>
<text x="420.0" y="304.0" class="lblar" text-anchor="middle" style="font-size:9.5px" >28,0 m²</text>
<text x="325.5" y="292.5" class="lblrm" text-anchor="middle" style="font-size:8px" >Rezerva středu</text>
<text x="325.5" y="300.5" class="lblar" text-anchor="middle" style="font-size:7.5px" >21,0 m² · shell</text>
<text x="609.0" y="144.0" class="lblrm" text-anchor="middle" style="font-size:8px" >Šatna a sprchy sportu</text>
<text x="609.0" y="152.0" class="lblar" text-anchor="middle" style="font-size:7.5px" >16,0 m²</text>
<text x="420.0" y="144.0" class="lblrm" text-anchor="middle" style="font-size:11.5px" >Rezerva středu — sever</text>
<text x="420.0" y="155.5" class="lblar" text-anchor="middle" style="font-size:9.5px" >40,0 m² · shell</text>
<text x="190.5" y="400.5" class="lblrm" text-anchor="middle" style="font-size:11.5px" >Sdílená dílna</text>
<text x="190.5" y="412.0" class="lblar" text-anchor="middle" style="font-size:9.5px" >91,0 m²</text>
<text x="190.5" y="157.5" class="lblrm" text-anchor="middle" style="font-size:11.5px" >Sklad</text>
<text x="190.5" y="169.0" class="lblar" text-anchor="middle" style="font-size:9.5px" >35,0 m²</text>
<line x1="852.0" y1="634.0" x2="663.0" y2="634.0" class="dim" />
<line x1="852.0" y1="630.0" x2="852.0" y2="638.0" class="dim" />
<line x1="663.0" y1="630.0" x2="663.0" y2="638.0" class="dim" />
<text x="757.5" y="629.0" class="dimt" text-anchor="middle">7,00</text>
<line x1="663.0" y1="634.0" x2="474.0" y2="634.0" class="dim" />
<line x1="663.0" y1="630.0" x2="663.0" y2="638.0" class="dim" />
<line x1="474.0" y1="630.0" x2="474.0" y2="638.0" class="dim" />
<text x="568.5" y="629.0" class="dimt" text-anchor="middle">7,00</text>
<line x1="474.0" y1="634.0" x2="285.0" y2="634.0" class="dim" />
<line x1="474.0" y1="630.0" x2="474.0" y2="638.0" class="dim" />
<line x1="285.0" y1="630.0" x2="285.0" y2="638.0" class="dim" />
<text x="379.5" y="629.0" class="dimt" text-anchor="middle">7,00</text>
<line x1="285.0" y1="634.0" x2="96.0" y2="634.0" class="dim" />
<line x1="285.0" y1="630.0" x2="285.0" y2="638.0" class="dim" />
<line x1="96.0" y1="630.0" x2="96.0" y2="638.0" class="dim" />
<text x="190.5" y="629.0" class="dimt" text-anchor="middle">7,00</text>
<line x1="852.0" y1="660.0" x2="96.0" y2="660.0" class="dim" />
<line x1="852.0" y1="656.0" x2="852.0" y2="664.0" class="dim" />
<line x1="96.0" y1="656.0" x2="96.0" y2="664.0" class="dim" />
<text x="474.0" y="655.0" class="dimt" text-anchor="middle">28,00</text>
<line x1="942.0" y1="578.0" x2="942.0" y2="92.0" class="dim" />
<line x1="938.0" y1="578.0" x2="946.0" y2="578.0" class="dim" />
<line x1="938.0" y1="92.0" x2="946.0" y2="92.0" class="dim" />
<text x="936.0" y="335.0" class="dimt" text-anchor="middle" transform="rotate(-90 936.0 335.0)">18,00</text>
<text x="474.0" y="612.0" class="lblsm" text-anchor="middle">JIH — všechny vstupy a vjezdy</text>
<text x="474.0" y="80.0" class="lblsm" text-anchor="middle">SEVER — hranice pozemku, slepá stěna bez otvorů</text>
<text x="860.0" y="80.0" class="lblsm" text-anchor="end">VÝCHOD — prosklené průčelí</text>
<text x="88.0" y="80.0" class="lblsm" >ZÁPAD — dočasný štít (etapa 2)</text>
<line x1="62.0" y1="416.0" x2="874.0" y2="416.0" class="dim" stroke-dasharray="12 4 3 4" stroke-width="1.4"/>
<text x="878.0" y="411.0" class="axis" >A</text>
<text x="58.0" y="411.0" class="axis" text-anchor="end">A</text>
<line x1="190.5" y1="68.0" x2="190.5" y2="600.0" class="dim" stroke-dasharray="12 4 3 4" stroke-width="1.4"/>
<text x="195.5" y="66.0" class="axis" >B</text>
<text x="195.5" y="612.0" class="axis" >B</text>
<circle cx="50.0" cy="114.0" r="15.0" fill="#fff" stroke="#2b2f36" stroke-width="1"/>
<polygon points="50.0,94.0 45.5,120.8 50.0,114.8 54.5,120.8" class="wall" />
<text x="50.0" y="90.0" class="axis" text-anchor="middle">S</text>
<rect x="96.0" y="694.0" width="16.0" height="9.0" class="wall" />
<text x="117.0" y="702.0" class="lblsm" >obvodový plášť</text>
<rect x="207.0" y="694.0" width="16.0" height="9.0" class="part" />
<text x="228.0" y="702.0" class="lblsm" >příčka</text>
<rect x="278.0" y="694.0" width="16.0" height="9.0" class="partfire" />
<text x="299.0" y="702.0" class="lblsm" >požárně dělicí konstrukce</text>
<rect x="444.0" y="694.0" width="16.0" height="9.0" class="glassw" />
<text x="465.0" y="702.0" class="lblsm" >prosklení</text>
<rect x="530.0" y="694.0" width="16.0" height="9.0" class="walltemp" />
<text x="551.0" y="702.0" class="lblsm" >dočasný štít</text>
<line x1="40.0" y1="732.0" x2="977.0" y2="732.0" class="frame" />
<text x="40.0" y="756.0" class="ttl" >BUDOVA 1P — studie dispozice, etapa 1 · B — S 5 JEDNOTKAMI</text>
<text x="40.0" y="774.0" class="sub" >PŮDORYS PŘÍZEMÍ (± 0,000) · vodorovný řez v úrovni +1,20 m</text>
<text x="40.0" y="789.0" class="sub" >Pozemek: ul. Kouřimského, Pelhřimov — nová odbočka mezi Optokonem a Wehou</text>
<text x="40.0" y="804.0" class="sub" >Generováno ze src/spec.js · 23. 8. 2026 · 18 × 56 m, etapa 1 = 18 × 28 m, rastr 7 m</text>
<text x="40.0" y="819.0" class="warn" >NENÍ projektová dokumentace — nástroj na hledání poměrů ploch před zadáním projektantovi.</text>
<text x="977.0" y="722.0" class="sub" text-anchor="end">přízemí 504 m² · světlá výška 3,00 m</text>
<rect x="707.0" y="794.0" width="67.5" height="6.0" class="frame" />
<rect x="774.5" y="794.0" width="67.5" height="6.0" class="wall" />
<rect x="842.0" y="794.0" width="67.5" height="6.0" class="frame" />
<rect x="909.5" y="794.0" width="67.5" height="6.0" class="wall" />
<text x="707.0" y="811.0" class="dimt" >0</text>
<text x="977.0" y="811.0" class="dimt" text-anchor="end">10 m</text>
</svg>
